<svg width="20" height="20" viewBox="0 0 20 20" fill="none" xmlns="http://www.w3.org/2000/svg">
<g clip-path="url(#clip0_21064_295214)">
<path d="M5.1161 10.2324L4.62782 11.2701L5.11381 12.7272L7.54235 12.7272L8.51377 11.7558L8.51348 9.81297L6.31448 8.34287L5.1161 10.2324Z" fill="#9B38DC"/>
<path d="M9.31209 9.25633L8.63712 10.7476L9.53069 12.946L13.2168 12.946L14.7876 11.8121L14.6141 8.93854L11.0272 6.56834L9.31209 9.25633Z" fill="#9B38DC"/>
<path d="M18.4569 5.91441C18.403 5.42965 18.4555 5.37487 17.9712 5.42871L15.9824 5.2665L17.4855 3.00018C17.8304 2.65529 17.8304 2.85929 17.4855 2.51447C17.1406 2.16958 16.8591 2.1695 16.5141 2.51447L14.7335 4.01758L14.5712 1.54305C14.625 1.05829 14.5702 1.11115 14.0855 1.05734C13.6007 1.00357 13.3057 0.872516 13.2519 1.35732L12.8883 4.63071C12.2542 4.22396 11.5483 4.00566 10.8341 4.00566C9.48906 4.00566 8.28499 4.74383 7.53051 6.03085L6.0026 8.63719L6.64799 9.28258L7.29338 9.92789L8.05663 10.6911C8.40152 11.036 8.40152 11.5951 8.05663 11.9401C7.8842 12.1125 7.65816 12.1987 7.43215 12.1987C7.20614 12.1987 6.98013 12.1126 6.80774 11.9401L6.37026 11.5026L5.72487 10.8572L5.0796 10.212L0.121278 18.6703C-0.0819615 19.017 -0.0254976 19.4571 0.258682 19.7413C0.428833 19.9115 0.654916 20 0.88339 20C1.03647 20 1.19064 19.9602 1.32971 19.8787L13.2678 12.8806L12.6225 12.2352L11.9772 11.5899L10.0764 9.68913C9.73154 9.34424 9.73154 8.78514 10.0764 8.44025C10.4214 8.09535 10.9805 8.09543 11.3253 8.44025L13.5156 10.6306L14.141 11.256L14.7645 11.8795C15.4305 11.26 15.8561 10.4696 15.9656 9.6154C16.0757 8.75767 15.8611 7.88175 15.3687 7.11179L18.6428 6.74796C19.1275 6.69411 18.5107 6.39914 18.4569 5.91441Z" fill="#FF9935"/>
<path d="M5.1161 10.2325L4.62782 11.2702L5.11381 12.7273L7.54235 12.7273L8.51377 11.7558L8.51348 9.81303L6.31448 8.34293L5.1161 10.2325Z" fill="#1C1F22"/>
<path d="M9.31209 9.2564L8.63712 10.7477L9.53069 12.9461L13.2168 12.9461L14.7876 11.8121L14.6141 8.9386L11.0272 6.56841L9.31209 9.2564Z" fill="#1C1F22"/>
<path d="M18.9426 5.91441C18.8887 5.42965 18.9412 5.37485 18.4569 5.4287L15.9824 5.26652L17.4855 3.00015C17.8304 2.65525 17.8304 2.85925 17.4855 2.51444C17.1406 2.16954 16.8591 2.16947 16.5141 2.51444L14.7335 4.0176L14.5712 1.54304C14.625 1.05827 14.5702 1.11114 14.0855 1.05733C13.6007 1.00356 13.3057 0.872539 13.2519 1.35734L12.8883 4.63073C12.2542 4.22399 11.5483 4.00568 10.8341 4.00568C9.48906 4.00568 8.28499 4.74385 7.53051 6.03087L6.0026 8.63721L6.64799 9.2826L7.29338 9.92791L8.05663 10.6912C8.40152 11.0361 8.40152 11.5952 8.05663 11.9401C7.8842 12.1126 7.65816 12.1988 7.43215 12.1988C7.20614 12.1988 6.98014 12.1126 6.80775 11.9401L6.37026 11.5026L5.72487 10.8573L5.0796 10.2121L0.121278 18.6703C-0.0819616 19.017 -0.0254976 19.4572 0.258682 19.7413C0.428833 19.9115 0.654916 20 0.883391 20C1.03647 20 1.19064 19.9603 1.32971 19.8787L13.2678 12.8807L12.6225 12.2353L11.9772 11.5899L10.0764 9.68916C9.73154 9.34426 9.73154 8.78516 10.0764 8.44027C10.4214 8.09538 10.9805 8.09545 11.3253 8.44027L13.5156 10.6306L14.141 11.2561L14.7645 11.8795C15.4305 11.26 15.8561 10.4697 15.9657 9.61543C16.0757 8.75769 15.8611 7.88178 15.3687 7.11181L18.6428 6.74798C19.1275 6.69414 18.9964 6.39914 18.9426 5.91441Z" fill="#FF9935"/>
<path d="M14.0431 1.54303L13.6016 6.40011M13.6016 6.40011L17.134 2.86769M13.6016 6.40011L18.4586 5.95856" stroke="#22D726" stroke-width="1.84569" stroke-linecap="round"/>
<path d="M12.629 4.45728L11.1719 4.94298L12.1433 8.34294L15.0575 8.82865L15.5432 7.37152L12.629 4.45728Z" fill="#FF9935"/>
</g>
<defs>
<clipPath id="clip0_21064_295214">
<rect width="20" height="20" fill="white"/>
</clipPath>
</defs>
</svg>
