<svg width="800" height="800" viewBox="0 0 800 800" fill="none" xmlns="http://www.w3.org/2000/svg">
<rect width="800" height="800" fill="#F5F5F5"/>
<rect width="800" height="800" fill="#F9F2F2"/>
<path d="M700.003 366.663C700.003 219.389 580.613 99.998 433.337 99.998ZM466.667 237.531C513.523 249.589 550.41 286.477 562.47 333.333ZM535.4 475.023C553.507 450.88 586.287 443.143 613.277 456.64L654.457 477.227C681.347 490.673 695.91 520.45 690.013 549.93L677.387 613.073C671.153 644.237 643.697 667.153 612.12 663.583C370.017 636.197 163.805 429.983 136.418 187.881C132.846 156.304 155.764 128.847 186.926 122.615L250.069 109.986C279.549 104.09 309.327 118.654 322.772 145.544L343.36 186.723C356.857 213.714 349.12 246.494 324.977 264.601C309.254 276.393 299.667 295.335 307.265 313.46C333.38 375.76 424.24 466.62 486.54 492.733C504.667 500.333 523.607 490.747 535.4 475.023Z" fill="white"/>
<path d="M700.003 366.663C700.003 219.389 580.613 99.998 433.337 99.998M466.667 237.531C513.523 249.589 550.41 286.477 562.47 333.333M535.4 475.023C553.507 450.88 586.287 443.143 613.277 456.64L654.457 477.227C681.347 490.673 695.91 520.45 690.013 549.93L677.387 613.073C671.153 644.237 643.697 667.153 612.12 663.583C370.017 636.197 163.805 429.983 136.418 187.881C132.846 156.304 155.764 128.847 186.926 122.615L250.069 109.986C279.549 104.09 309.327 118.654 322.772 145.544L343.36 186.723C356.857 213.714 349.12 246.494 324.977 264.601C309.254 276.393 299.667 295.335 307.265 313.46C333.38 375.76 424.24 466.62 486.54 492.733C504.667 500.333 523.607 490.747 535.4 475.023Z" stroke="#FFFAFA" stroke-width="66.6667" stroke-linecap="round" stroke-linejoin="round"/>
</svg>
